<svg xmlns="http://www.w3.org/2000/svg" width="1200" height="630" viewBox="0 0 1200 630" role="img" aria-labelledby="title desc">
  <title id="title">Retro Vault Elite share card</title>
  <desc id="desc">A premium retro game collection tracker social preview card.</desc>
  <defs>
    <linearGradient id="bg" x1="0" x2="1" y1="0" y2="1">
      <stop offset="0" stop-color="#191329"/>
      <stop offset="0.48" stop-color="#0c1724"/>
      <stop offset="1" stop-color="#05080f"/>
    </linearGradient>
    <linearGradient id="gold" x1="0" x2="1">
      <stop offset="0" stop-color="#ff9b35"/>
      <stop offset="1" stop-color="#ffe071"/>
    </linearGradient>
    <filter id="glow" x="-20%" y="-20%" width="140%" height="140%">
      <feGaussianBlur stdDeviation="18" result="blur"/>
      <feColorMatrix in="blur" values="1 0 0 0 1 0 1 0 0 0.62 0 0 1 0 0.18 0 0 0 0.55 0"/>
      <feBlend in="SourceGraphic"/>
    </filter>
  </defs>
  <rect width="1200" height="630" fill="url(#bg)"/>
  <circle cx="1010" cy="96" r="220" fill="#ff9b35" opacity="0.12"/>
  <circle cx="130" cy="520" r="260" fill="#4fe1b1" opacity="0.08"/>
  <path d="M0 470 C160 390 300 560 470 480 C650 398 800 520 980 428 C1080 378 1140 384 1200 410 L1200 630 L0 630 Z" fill="#ffffff" opacity="0.045"/>
  <rect x="66" y="64" width="1068" height="502" rx="44" fill="#101a28" opacity="0.82" stroke="#9ac9ec" stroke-opacity="0.22"/>
  <g filter="url(#glow)">
    <rect x="86" y="86" width="220" height="56" rx="28" fill="url(#gold)"/>
  </g>
  <text x="114" y="123" fill="#180d05" font-family="Arial, Helvetica, sans-serif" font-size="21" font-weight="900" letter-spacing="4">RETRO VAULT</text>
  <text x="86" y="238" fill="#f8fbff" font-family="Arial, Helvetica, sans-serif" font-size="82" font-weight="900" letter-spacing="-4">Catalogue your</text>
  <text x="86" y="324" fill="#f8fbff" font-family="Arial, Helvetica, sans-serif" font-size="82" font-weight="900" letter-spacing="-4">retro collection.</text>
  <text x="90" y="385" fill="#b7c7d8" font-family="Arial, Helvetica, sans-serif" font-size="31" font-weight="700">Track value, completion, grails, and collector rank.</text>
  <g transform="translate(830 155)">
    <rect x="0" y="0" width="230" height="318" rx="24" fill="#17283b" stroke="#ffe071" stroke-opacity="0.45"/>
    <rect x="24" y="24" width="182" height="184" rx="16" fill="url(#gold)"/>
    <rect x="50" y="52" width="130" height="34" rx="8" fill="#15101d"/>
    <rect x="50" y="104" width="130" height="18" rx="9" fill="#15101d" opacity="0.72"/>
    <rect x="50" y="140" width="130" height="18" rx="9" fill="#15101d" opacity="0.72"/>
    <text x="28" y="252" fill="#f8fbff" font-family="Arial, Helvetica, sans-serif" font-size="27" font-weight="900">Collector</text>
    <text x="28" y="288" fill="#ffe071" font-family="Arial, Helvetica, sans-serif" font-size="27" font-weight="900">Challenge</text>
  </g>
  <text x="90" y="502" fill="#ffe071" font-family="Arial, Helvetica, sans-serif" font-size="34" font-weight="900">retrovaultelite.com</text>
</svg>
